<svg xmlns="http://www.w3.org/2000/svg" xmlns:svg="http://www.w3.org/2000/svg" xmlns:xlink="http://www.w3.org/1999/xlink" id="svg786" width="499" height="325" style="font-size:12px;overflow:visible;color-interpolation-filters:sRGB;fill:none;fill-rule:evenodd;stroke-linecap:square;stroke-miterlimit:3" class="st17" version="1.1" viewBox="0 0 374.25 243.75" xml:space="preserve"><metadata id="metadata790"/><style id="style401" type="text/css">.st1{fill:#fff;stroke:#000;stroke-linecap:round;stroke-linejoin:round;stroke-width:.25}.st2{fill:#000;font-family:Helvetica;font-size:.666664em}.st3{font-size:1em}.st4{fill:none;stroke:none;stroke-linecap:round;stroke-linejoin:round;stroke-width:.75}.st5{fill:#000;font-family:Helvetica;font-size:.833336em}.st6,.st7{stroke:#000}.st6{marker-end:url(#mrkr13-30);marker-start:url(#mrkr13-28);stroke-linecap:round;stroke-linejoin:round;stroke-width:.25}.st7{fill:#000;fill-opacity:1;stroke-opacity:1;stroke-width:.14792899408284}.st8{fill:#fff}.st10,.st9{stroke:#000;stroke-linecap:round;stroke-linejoin:round}.st9{stroke-width:.24}.st10{marker-end:url(#mrkr13-30);stroke-width:.25}.st11{fill:#fff;stroke:none;stroke-linecap:butt;stroke-width:7.2}.st12,.st13,.st14{stroke-linecap:round;stroke-linejoin:round;stroke-width:.25}.st12{fill:none;stroke:none}.st13,.st14{stroke:#000}.st13{fill:none}.st14{marker-end:url(#mrkr13-30);stroke-dasharray:3.75,2.25}.st15{fill:#fff;stroke:none;stroke-linecap:butt}.st16{stroke:#fff;stroke-linecap:round;stroke-linejoin:round;stroke-width:.75}.st17{fill:none;fill-rule:evenodd;font-size:12px;overflow:visible;stroke-linecap:square;stroke-miterlimit:3}</style><defs id="Markers"><g id="lend13"><path id="path403" d="M 3,1 0,0 3,-1 v 2" style="stroke:none"/></g><marker style="overflow:visible;fill:#000;fill-opacity:1;stroke:#000;stroke-width:.147929;stroke-opacity:1" id="mrkr13-28" class="st7" markerUnits="strokeWidth" orient="auto" overflow="visible" refX="18.84"><use id="use406" width="100%" height="100%" x="0" y="0" transform="scale(6.76)" xlink:href="#lend13"/></marker><marker style="overflow:visible;fill:#000;fill-opacity:1;stroke:#000;stroke-width:.147929;stroke-opacity:1" id="mrkr13-30" class="st7" markerUnits="strokeWidth" orient="auto" overflow="visible" refX="-20.28"><use id="use409" width="100%" height="100%" x="0" y="0" transform="scale(-6.76)" xlink:href="#lend13"/></marker></defs><g id="g784" transform="translate(-76.124962,-123.37496)"><title id="title413">Page-1</title><g id="shape2-1" transform="translate(198,-603)"><title id="title415">Sheet.2</title><desc id="desc417">S3 Routes</desc><rect style="fill:#fff;stroke:#000;stroke-width:.25;stroke-linecap:round;stroke-linejoin:round" id="rect419" width="54" height="22.5" x="0" y="769.5" class="st1"/><text style="font-size:7.99996805px;font-family:Helvetica;fill:#000" id="text421" x="10.95" y="783.15" class="st2">S3 Routes</text></g><g id="shape3-4" transform="translate(198,-531)"><title id="title424">Sheet.3</title><desc id="desc426">Management Agent</desc><rect style="fill:#fff;stroke:#000;stroke-width:.25;stroke-linecap:round;stroke-linejoin:round" id="rect428" width="54" height="22.5" x="0" y="769.5" class="st1"/><text style="font-size:7.99996805px;font-family:Helvetica;fill:#000" id="text432" x="5.15" y="778.35" class="st2">Management <tspan style="font-size:7.99996805px" id="tspan430" x="17.37" class="st3" dy="1.2em">Agent</tspan></text></g><g id="shape4-8" transform="translate(198,-567)"><title id="title435">Sheet.4</title><desc id="desc437">Backbeat Routes</desc><rect style="fill:#fff;stroke:#000;stroke-width:.25;stroke-linecap:round;stroke-linejoin:round" id="rect439" width="54" height="22.5" x="0" y="769.5" class="st1"/><text style="font-size:7.99996805px;font-family:Helvetica;fill:#000" id="text443" x="12.05" y="778.35" class="st2">Backbeat <tspan style="font-size:7.99996805px" id="tspan441" x="15.72" class="st3" dy="1.2em">Routes</tspan></text></g><g id="shape8-12" transform="translate(189,-625.5)"><title id="title446">Sheet.8</title><desc id="desc448">CloudServer</desc><rect style="fill:none;stroke:none;stroke-width:.75;stroke-linecap:round;stroke-linejoin:round" id="rect450" width="162" height="22.5" x="0" y="769.5" class="st4"/><text style="font-size:10.00003242px;font-family:Helvetica;fill:#000" id="text452" x="56.28" y="783.75" class="st5">CloudServer</text></g><g id="shape9-15" transform="translate(288,-567)"><title id="title455">Sheet.9</title><desc id="desc457">Metadata Backend</desc><rect style="fill:#fff;stroke:#000;stroke-width:.25;stroke-linecap:round;stroke-linejoin:round" id="rect459" width="54" height="22.5" x="0" y="769.5" class="st1"/><text style="font-size:7.99996805px;font-family:Helvetica;fill:#000" id="text463" x="11.06" y="778.35" class="st2">Metadata <tspan style="font-size:7.99996805px" id="tspan461" x="13.21" class="st3" dy="1.2em">Backend</tspan></text></g><g id="shape10-19" transform="translate(288,-603)"><title id="title466">Sheet.10</title><desc id="desc468">Data Backend</desc><rect style="fill:#fff;stroke:#000;stroke-width:.25;stroke-linecap:round;stroke-linejoin:round" id="rect470" width="54" height="22.5" x="0" y="769.5" class="st1"/><text style="font-size:7.5px;font-family:Helvetica;fill:#000" id="text472" x="4.67" y="783.15" class="st2">Data Backend</text></g><g id="shape21-22" transform="rotate(143.569,301.06176,532.61078)"><title id="title475">Sheet.21</title><path style="stroke:#000;stroke-width:.25;stroke-linecap:round;stroke-linejoin:round;marker-start:url(#mrkr13-28);marker-end:url(#mrkr13-30)" id="path477" d="M 4.71,792 H 5.07 53.66" class="st6"/></g><g id="shape23-31" transform="rotate(-165.069,165.82815,468.16916)"><title id="title480">Sheet.23</title><path style="stroke:#000;stroke-width:.25;stroke-linecap:round;stroke-linejoin:round;marker-start:url(#mrkr13-28);marker-end:url(#mrkr13-30)" id="path482" d="M 4.71,792 H 5.07 64.79" class="st6"/></g><g id="shape24-38" transform="rotate(-146.725,122.61986,447.76833)"><title id="title485">Sheet.24</title><path style="stroke:#000;stroke-width:.25;stroke-linecap:round;stroke-linejoin:round;marker-start:url(#mrkr13-28);marker-end:url(#mrkr13-30)" id="path487" d="M 4.71,792 H 5.07 81.05" class="st6"/></g><g id="shape22-45" transform="rotate(169.34,229.29641,499.17856)"><title id="title490">Sheet.22</title><path style="stroke:#000;stroke-width:.25;stroke-linecap:round;stroke-linejoin:round;marker-start:url(#mrkr13-28);marker-end:url(#mrkr13-30)" id="path492" d="M 4.71,792 H 5.07 54.43" class="st6"/></g><g id="group34-52" transform="translate(290.25,-428.062)"><title id="title495">Sheet.34</title><g id="shape35-53" transform="rotate(-90,27.281,764.719)"><title id="title497">Database.99</title><path style="fill:#fff" id="path499" d="m 6.82,737.44 h 64.62 a 57.9727,57.9727 0 0 1 0,54.56 H 6.82 a 57.9727,57.9727 0 0 1 0,-54.56 z" class="st8"/><path style="stroke:#000;stroke-width:.23999999;stroke-linecap:round;stroke-linejoin:round" id="path501" d="m 6.82,737.44 h 64.62 a 57.9727,57.9727 0 0 1 0,54.56 H 6.82 a 57.9727,57.9727 0 0 1 0,-54.56" class="st9"/><path style="stroke:#000;stroke-width:.23999999;stroke-linecap:round;stroke-linejoin:round" id="path503" d="m 71.44,737.44 a 57.9727,57.9727 -180 0 0 0,54.56" class="st9"/></g></g><g id="shape37-57" transform="translate(290.25,-477.25)"><title id="title507">Sheet.37</title><desc id="desc509">MongoDB</desc><rect style="fill:none;stroke:none;stroke-width:.75;stroke-linecap:round;stroke-linejoin:round" id="rect511" width="54.563" height="18" x="0" y="774" class="st4"/><text style="font-size:7.99996805px;font-family:Helvetica;fill:#000" id="text513" x="11.02" y="785.4" class="st2">MongoDB</text></g><g id="shape38-60" transform="translate(301.781,-464.625)"><title id="title516">Sheet.38</title><desc id="desc518">leader</desc><rect style="fill:#fff;stroke:#000;stroke-width:.25;stroke-linecap:round;stroke-linejoin:round" id="rect520" width="31.5" height="11.25" x="0" y="780.75" class="st1"/><text style="font-size:7.99996805px;font-family:Helvetica;fill:#000" id="text522" x="5.44" y="788.77" class="st2">leader</text></g><g id="shape39-63" transform="translate(301.781,-443.25)"><title id="title525">Sheet.39</title><desc id="desc527">OpLog</desc><rect style="fill:#fff;stroke:#000;stroke-width:.25;stroke-linecap:round;stroke-linejoin:round" id="rect529" width="31.5" height="11.25" x="0" y="780.75" class="st1"/><text style="font-size:7.99996805px;font-family:Helvetica;fill:#000" id="text531" x="5.33" y="788.77" class="st2">OpLog</text></g><g id="shape40-66" transform="translate(81,-603)"><title id="title534">Sheet.40</title><desc id="desc536">S3 Client</desc><rect style="fill:#fff;stroke:#000;stroke-width:.25;stroke-linecap:round;stroke-linejoin:round" id="rect538" width="54" height="22.5" x="0" y="769.5" class="st1"/><text style="font-size:7.99996805px;font-family:Helvetica;fill:#000" id="text540" x="12.83" y="783.15" class="st2">S3 Client</text></g><g id="shape41-69" transform="translate(81,-567)"><title id="title543">Sheet.41</title><desc id="desc545">Control Client</desc><rect style="fill:#fff;stroke:#000;stroke-width:.25;stroke-linecap:round;stroke-linejoin:round" id="rect547" width="54" height="22.5" x="0" y="769.5" class="st1"/><text style="font-size:7.99996805px;font-family:Helvetica;fill:#000" id="text549" x="4.59" y="783.15" class="st2">Control Client</text></g><g id="shape42-72" transform="translate(81,-531)"><title id="title552">Sheet.42</title><desc id="desc554">Orbit Push</desc><rect style="fill:#fff;stroke:#000;stroke-width:.25;stroke-linecap:round;stroke-linejoin:round" id="rect556" width="54" height="22.5" x="0" y="769.5" class="st1"/><text style="font-size:7.99996805px;font-family:Helvetica;fill:#000" id="text558" x="9.86" y="783.15" class="st2">Orbit Push</text></g><g id="shape45-75" transform="translate(135,-605.25)"><title id="title561">Dynamic connector</title><desc id="desc563">S3</desc><path style="stroke:#000;stroke-width:.25;stroke-linecap:round;stroke-linejoin:round;marker-end:url(#mrkr13-30)" id="path565" d="M 0,783 H 57.93" class="st10"/><rect style="fill:#fff;stroke:none;stroke-width:7.19999981;stroke-linecap:butt" id="rect567" width="7.731" height="9.6" x="27.635" y="778.2" class="st11"/><text style="font-size:7px;font-family:Helvetica;fill:#000" id="text569" x="27.63" y="785.4" class="st2">S3</text></g><g id="group28-82" transform="translate(399.938,-607.5)"><title id="title572">Cloud.28</title><g id="shape29-83" transform="translate(0,-7.68028)"><title id="title574">Sheet.29</title><path style="fill:#fff;stroke:#000;stroke-width:.25;stroke-linecap:round;stroke-linejoin:round" id="path576" d="m 31.55,776.98 c -0.2,-1.7 -1.77,-3.03 -3.7,-3.03 -0.55,0 -1.07,0.12 -1.53,0.31 -0.91,-1.68 -2.79,-2.9 -6.32,-2.8 -4.58,0.13 -10,2.16 -11.09,5.76 -1.31,0.25 -2.15,0.94 -2.65,1.87 -0.2,-0.02 -0.41,-0.03 -0.62,-0.03 -3.02,0 -5.34,2.17 -5.47,4.83 -0.17,3.46 2.45,4.84 5.47,4.84 0.43,0 0.85,-0.05 1.25,-0.13 0.63,0.4 1.44,0.65 2.34,0.65 0.83,0 1.59,-0.21 2.19,-0.57 1.17,1.95 3.55,3.32 6.31,3.16 2.89,-0.17 4.63,-0.77 5.66,-1.71 0.06,-0.01 0.12,-0.01 0.19,-0.02 3.24,-0.41 4.66,-1.23 5.12,-2.59 0.08,0 0.17,0 0.26,0 4.2,0 7.6,-1.21 7.6,-5.44 0,-2.35 -2.1,-4.34 -5.01,-5.1 z" class="st1"/></g></g><g id="shape19-85" transform="translate(400.219,-618.75)"><title id="title580">Sheet.19</title><desc id="desc582">S3C</desc><rect style="fill:none;stroke:none;stroke-width:.25;stroke-linecap:round;stroke-linejoin:round" id="rect584" width="36.563" height="11.25" x="0" y="780.75" class="st12"/><text style="font-size:7.99996805px;font-family:Helvetica;fill:#000" id="text586" x="12.28" y="788.77" class="st2">S3C</text></g><g id="group30-88" transform="translate(408.375,-577.125)"><title id="title589">Cloud.30</title><g id="shape31-89" transform="translate(0,-7.68028)"><title id="title591">Sheet.31</title><path style="fill:#fff;stroke:#000;stroke-width:.25;stroke-linecap:round;stroke-linejoin:round" id="path593" d="m 31.55,776.98 c -0.2,-1.7 -1.77,-3.03 -3.7,-3.03 -0.55,0 -1.07,0.12 -1.53,0.31 -0.91,-1.68 -2.79,-2.9 -6.32,-2.8 -4.58,0.13 -10,2.16 -11.09,5.76 -1.31,0.25 -2.15,0.94 -2.65,1.87 -0.2,-0.02 -0.41,-0.03 -0.62,-0.03 -3.02,0 -5.34,2.17 -5.47,4.83 -0.17,3.46 2.45,4.84 5.47,4.84 0.43,0 0.85,-0.05 1.25,-0.13 0.63,0.4 1.44,0.65 2.34,0.65 0.83,0 1.59,-0.21 2.19,-0.57 1.17,1.95 3.55,3.32 6.31,3.16 2.89,-0.17 4.63,-0.77 5.66,-1.71 0.06,-0.01 0.12,-0.01 0.19,-0.02 3.24,-0.41 4.66,-1.23 5.12,-2.59 0.08,0 0.17,0 0.26,0 4.2,0 7.6,-1.21 7.6,-5.44 0,-2.35 -2.1,-4.34 -5.01,-5.1 z" class="st1"/></g></g><g id="shape20-91" transform="translate(410.625,-585)"><title id="title597">Sheet.20</title><desc id="desc599">GCP</desc><rect style="fill:none;stroke:none;stroke-width:.25;stroke-linecap:round;stroke-linejoin:round" id="rect601" width="31.5" height="18" x="0" y="774" class="st12"/><text style="font-size:7.99996805px;font-family:Helvetica;fill:#000" id="text603" x="9.03" y="785.4" class="st2">GCP</text></g><g id="group32-94" transform="translate(408.375,-545.062)"><title id="title606">Cloud.32</title><g id="shape33-95" transform="translate(0,-7.68028)"><title id="title608">Sheet.33</title><path style="fill:#fff;stroke:#000;stroke-width:.25;stroke-linecap:round;stroke-linejoin:round" id="path610" d="m 31.55,776.98 c -0.2,-1.7 -1.77,-3.03 -3.7,-3.03 -0.55,0 -1.07,0.12 -1.53,0.31 -0.91,-1.68 -2.79,-2.9 -6.32,-2.8 -4.58,0.13 -10,2.16 -11.09,5.76 -1.31,0.25 -2.15,0.94 -2.65,1.87 -0.2,-0.02 -0.41,-0.03 -0.62,-0.03 -3.02,0 -5.34,2.17 -5.47,4.83 -0.17,3.46 2.45,4.84 5.47,4.84 0.43,0 0.85,-0.05 1.25,-0.13 0.63,0.4 1.44,0.65 2.34,0.65 0.83,0 1.59,-0.21 2.19,-0.57 1.17,1.95 3.55,3.32 6.31,3.16 2.89,-0.17 4.63,-0.77 5.66,-1.71 0.06,-0.01 0.12,-0.01 0.19,-0.02 3.24,-0.41 4.66,-1.23 5.12,-2.59 0.08,0 0.17,0 0.26,0 4.2,0 7.6,-1.21 7.6,-5.44 0,-2.35 -2.1,-4.34 -5.01,-5.1 z" class="st1"/></g></g><g id="shape18-97" transform="translate(408.938,-558)"><title id="title614">Sheet.18</title><desc id="desc616">Azure</desc><rect style="fill:none;stroke:none;stroke-width:.25;stroke-linecap:round;stroke-linejoin:round" id="rect618" width="36.563" height="11.25" x="0" y="780.75" class="st12"/><text style="font-size:7.99996805px;font-family:Helvetica;fill:#000" id="text620" x="8.9" y="788.77" class="st2">Azure</text></g><g id="group51-100" transform="translate(385.926,-507.704)"><title id="title623">Cloud.32</title><g id="shape52-101" transform="translate(0,-10.4198)"><title id="title625">Sheet.52</title><path style="fill:#fff;stroke:#000;stroke-width:.25;stroke-linecap:round;stroke-linejoin:round" id="path627" d="m 35.14,771.63 c -0.22,-2.31 -1.97,-4.12 -4.12,-4.12 -0.61,0 -1.18,0.16 -1.7,0.42 -1.02,-2.27 -3.11,-3.93 -7.04,-3.8 -5.1,0.18 -11.14,2.93 -12.36,7.82 -1.45,0.33 -2.39,1.28 -2.95,2.54 -0.22,-0.03 -0.45,-0.05 -0.69,-0.05 -3.36,0 -5.94,2.94 -6.09,6.56 -0.19,4.69 2.73,6.57 6.09,6.57 0.48,0 0.94,-0.07 1.39,-0.18 0.7,0.54 1.61,0.88 2.61,0.88 0.92,0 1.77,-0.29 2.45,-0.77 1.29,2.64 3.95,4.5 7.02,4.28 3.22,-0.22 5.16,-1.05 6.3,-2.32 0.08,-0.01 0.14,-0.01 0.22,-0.02 3.6,-0.56 5.19,-1.68 5.7,-3.52 0.1,0 0.19,0 0.29,0 4.68,0 8.47,-1.64 8.47,-7.38 0,-3.19 -2.34,-5.88 -5.59,-6.91 z" class="st1"/></g></g><g id="shape53-103" transform="translate(371.25,-521.767)"><title id="title631">Sheet.53</title><desc id="desc633">RING sproxyd</desc><rect style="fill:none;stroke:none;stroke-width:.25;stroke-linecap:round;stroke-linejoin:round" id="rect635" width="72" height="22.5" x="0" y="769.5" class="st12"/><text style="font-size:7.99996805px;font-family:Helvetica;fill:#000" id="text639" x="27.71" y="778.35" class="st2">RING<tspan style="font-size:7.99996805px" id="tspan637" x="23.19" class="st3" dy="1.2em">sproxyd</tspan></text></g><g id="shape55-107" transform="rotate(-126.656,62.51131,422.81927)"><title id="title642">Sheet.55</title><path style="stroke:#000;stroke-width:.25;stroke-linecap:round;stroke-linejoin:round;marker-start:url(#mrkr13-28);marker-end:url(#mrkr13-30)" id="path644" d="M 4.71,792 H 5.07 85.38" class="st6"/></g><g id="group56-114" transform="translate(374.625,-635.625)"><title id="title647">Sheet.56</title><g id="group26-115" transform="translate(2.53125)"><title id="title649">Cloud.26</title><g id="shape27-116" transform="translate(0,-7.68028)"><title id="title651">Sheet.27</title><path style="fill:#fff;stroke:#000;stroke-width:.25;stroke-linecap:round;stroke-linejoin:round" id="path653" d="m 37.01,776.98 c -0.24,-1.7 -2.08,-3.03 -4.34,-3.03 -0.65,0 -1.25,0.12 -1.8,0.31 -1.07,-1.68 -3.27,-2.9 -7.41,-2.8 -5.37,0.13 -11.73,2.16 -13.01,5.76 -1.53,0.25 -2.52,0.94 -3.11,1.87 -0.24,-0.02 -0.48,-0.03 -0.73,-0.03 -3.54,0 -6.25,2.17 -6.41,4.83 -0.2,3.46 2.87,4.84 6.41,4.84 0.51,0 1,-0.05 1.47,-0.13 0.74,0.4 1.69,0.65 2.75,0.65 0.97,0 1.86,-0.21 2.57,-0.57 1.36,1.95 4.17,3.32 7.39,3.16 3.4,-0.17 5.44,-0.77 6.65,-1.71 0.07,-0.01 0.14,-0.01 0.22,-0.02 3.8,-0.41 5.47,-1.23 6.01,-2.59 0.1,0 0.2,0 0.3,0 4.93,0 8.92,-1.21 8.92,-5.44 0,-2.35 -2.46,-4.34 -5.88,-5.1 z" class="st1"/></g></g><g id="shape17-118" transform="translate(0,-3.375)"><title id="title657">Sheet.17</title><desc id="desc659">AWS S3</desc><rect style="fill:none;stroke:none;stroke-width:.25;stroke-linecap:round;stroke-linejoin:round" id="rect661" width="51.75" height="27" x="0" y="765" class="st12"/><text style="font-size:7.99996805px;font-family:Helvetica;fill:#000" id="text663" x="13.39" y="780.9" class="st2">AWS S3</text></g></g><g id="shape57-121" transform="translate(252,-605.25)"><title id="title667">Dynamic connector.57</title><path style="stroke:#000;stroke-width:.25;stroke-linecap:round;stroke-linejoin:round;marker-end:url(#mrkr13-30)" id="path669" d="M 0,783 H 30.93" class="st10"/></g><g id="shape59-126" transform="translate(135.375,-541.125)"><title id="title672">Dynamic connector.59</title><desc id="desc674">Control</desc><path style="stroke:#000;stroke-width:.25;stroke-linecap:round;stroke-linejoin:round;marker-end:url(#mrkr13-30)" id="path676" d="M 0,783 H 57.55" class="st10"/><rect style="fill:#fff;stroke:none;stroke-width:7.19999981;stroke-linecap:butt" id="rect678" width="24.211" height="9.6" x="19.207" y="778.2" class="st11"/><text style="font-size:7px;font-family:Helvetica;fill:#000" id="text680" x="19.21" y="785.4" class="st2">Control</text></g><g id="shape60-133" transform="translate(198,-533.25)"><title id="title683">Dynamic connector.60</title><desc id="desc685">Stats</desc><path style="stroke:#000;stroke-width:.25;stroke-linecap:round;stroke-linejoin:round;marker-end:url(#mrkr13-30)" id="path687" d="M 0,783 H -57.93" class="st10"/><rect style="fill:#fff;stroke:none;stroke-width:7.19999981;stroke-linecap:butt" id="rect689" width="15.996" height="9.6" x="-39.498" y="778.2" class="st11"/><text style="font-size:7px;font-family:Helvetica;fill:#000" id="text691" x="-39.5" y="785.4" class="st2">Stats</text></g><g id="shape68-140" transform="translate(189,-517.5)"><title id="title694">Sheet.68</title><rect style="fill:none;stroke:#000;stroke-width:.25;stroke-linecap:round;stroke-linejoin:round" id="rect696" width="162" height="130.5" x="0" y="661.5" class="st13"/></g><g id="shape58-142" transform="translate(108,-569.25)"><title id="title699">Dynamic connector.58</title><desc id="desc701">Metrics, Control</desc><path style="stroke:#000;stroke-width:.25;stroke-linecap:round;stroke-linejoin:round;marker-end:url(#mrkr13-30)" id="path703" d="M 0,794.25 V 801 h 117 v 1.68" class="st10"/><rect style="fill:#fff;stroke:none;stroke-width:7.19999981;stroke-linecap:butt" id="rect705" width="52.652" height="9.6" x="32.174" y="796.2" class="st11"/><text style="font-size:7px;font-family:Helvetica;fill:#000" id="text707" x="32.17" y="803.4" class="st2">Metrics, Control</text></g><g id="shape65-149" transform="translate(135,-525.375)"><title id="title710">Dynamic connector.65</title><desc id="desc712">Config. updates</desc><path style="stroke:#000;stroke-width:.25;stroke-linecap:round;stroke-linejoin:round;marker-end:url(#mrkr13-30)" id="path714" d="M 0,783 H 57.93" class="st10"/><rect style="fill:#fff;stroke:none;stroke-width:7.19999981;stroke-linecap:butt" id="rect716" width="50.789" height="9.6" x="6.106" y="778.2" class="st11"/><text style="font-size:7px;font-family:Helvetica;fill:#000" id="text718" x="6.11" y="785.4" class="st2">Config. updates</text></g><g id="shape70-156" transform="translate(225,-589.5)"><title id="title721">Sheet.70</title><path style="stroke:#000;stroke-width:.25;stroke-linecap:round;stroke-linejoin:round;marker-end:url(#mrkr13-30)" id="path723" d="m 0,792 v -6.75 h 92.25 v -1.68" class="st10"/></g><g id="shape71-161" transform="translate(252,-585)"><title id="title726">Sheet.71</title><path style="stroke:#000;stroke-width:.25;stroke-linecap:round;stroke-linejoin:round;stroke-dasharray:3.75,2.25;marker-end:url(#mrkr13-30)" id="path728" d="M 0,769.5 H 18 V 792 h 12.93" class="st14"/></g><g id="shape72-166" transform="translate(252,-576)"><title id="title731">Sheet.72</title><desc id="desc733">md</desc><path style="stroke:#000;stroke-width:.25;stroke-linecap:round;stroke-linejoin:round;stroke-dasharray:3.75,2.25;marker-end:url(#mrkr13-30)" id="path735" d="M 0,792 H 30.93" class="st14"/><rect style="fill:#fff;stroke:none;stroke-linecap:butt" id="rect737" width="10.594" height="9.6" x="12.703" y="787.2" class="st15"/><text style="font-size:7px;font-family:Helvetica;fill:#000" id="text739" x="12.7" y="794.4" class="st2">md</text></g><g id="shape73-173" transform="translate(252,-601.875)"><title id="title742">Sheet.73</title><desc id="desc744">md</desc><rect style="fill:none;stroke:none;stroke-width:.75;stroke-linecap:round;stroke-linejoin:round" id="rect746" width="18.625" height="11.25" x="0" y="780.75" class="st4"/><rect style="fill:#fff;stroke:none;stroke-linecap:butt" id="rect748" width="10.594" height="9.6" x="4.016" y="781.575" class="st15"/><text style="font-size:7px;font-family:Helvetica;fill:#000" id="text750" x="4.02" y="788.77" class="st2">md</text></g><g id="shape74-177" transform="rotate(-90,-79.3595,395.1095)"><title id="title753">Sheet.74</title><desc id="desc755">md</desc><path style="stroke:#000;stroke-width:.25;stroke-linecap:round;stroke-linejoin:round;stroke-dasharray:3.75,2.25;marker-end:url(#mrkr13-30)" id="path757" d="M 0,792 H 85.68" class="st14"/><rect style="fill:#fff;stroke:none;stroke-width:7.19999981;stroke-linecap:butt" id="rect759" width="10.594" height="9.6" x="40.078" y="787.2" class="st11"/><text style="font-size:7px;font-family:Helvetica;fill:#000" id="text761" x="40.08" y="794.4" class="st2">md</text></g><g id="shape25-184" transform="rotate(90,545.625,696.375)"><title id="title764">Sheet.25</title><path style="stroke:#fff;stroke-width:.75;stroke-linecap:round;stroke-linejoin:round" id="path766" d="M 0,792 H 139.5" class="st16"/></g><g id="shape76-187" transform="rotate(90,358.875,509.625)"><title id="title769">Sheet.76</title><path style="stroke:#fff;stroke-width:.75;stroke-linecap:round;stroke-linejoin:round" id="path771" d="M 0,792 H 139.5" class="st16"/></g><g id="shape77-190" transform="translate(195.75,-668.25)"><title id="title774">Sheet.77</title><path style="stroke:#fff;stroke-width:.75;stroke-linecap:round;stroke-linejoin:round" id="path776" d="M 0,792 H 213" class="st16"/></g><g id="shape78-193" transform="translate(195.75,-425.25)"><title id="title779">Sheet.78</title><path style="stroke:#fff;stroke-width:.75;stroke-linecap:round;stroke-linejoin:round" id="path781" d="M 0,792 H 171.75" class="st16"/></g></g></svg>