<svg xmlns="http://www.w3.org/2000/svg" xmlns:svg="http://www.w3.org/2000/svg" xmlns:xlink="http://www.w3.org/1999/xlink" id="svg4978" width="488.2" height="208.6" style="font-size:12px;overflow:visible;color-interpolation-filters:sRGB;fill:none;fill-rule:evenodd;stroke-linecap:square;stroke-miterlimit:3" class="st16" version="1.1" viewBox="0 0 366.15 156.45" xml:space="preserve"><metadata id="metadata4982"/><style id="style4734" type="text/css">.st1{fill:#d8d8d8;stroke:none;stroke-linecap:butt;stroke-width:1}.st2,.st3{stroke:#a5a5a5}.st2{marker-end:url(#mrkr13-14);marker-start:url(#mrkr13-12);stroke-dasharray:3.75,2.25;stroke-linecap:round;stroke-linejoin:round;stroke-width:.25}.st3{fill:#a5a5a5;fill-opacity:1;stroke-opacity:1;stroke-width:.090252707581227}.st4{fill:#fff;stroke:none;stroke-linecap:butt;stroke-width:7.2}.st5{fill:#a5a5a5;font-family:Helvetica;font-size:.666664em}.st6{fill:#fff;stroke:#000;stroke-linecap:round;stroke-linejoin:round;stroke-width:.24}.st7{fill:#000;font-family:Helvetica;font-size:.666664em}.st8,.st9{fill:none;stroke:#000;stroke-linecap:round;stroke-linejoin:round;stroke-width:.24}.st9{fill:#fff;stroke:#a5a5a5;stroke-dasharray:3.6,2.16}.st10{font-size:1em}.st11,.st12{marker-end:url(#mrkr13-14);stroke:#a5a5a5;stroke-linecap:round;stroke-linejoin:round;stroke-width:.25}.st12{marker-end:url(#mrkr13-81);stroke:#000}.st13{fill:#000;fill-opacity:1;stroke:#000;stroke-opacity:1;stroke-width:.090252707581227}.st14{fill:#fff;stroke:none;stroke-linecap:butt}.st15{stroke:#fff;stroke-linecap:round;stroke-linejoin:round;stroke-width:.75}.st16{fill:none;fill-rule:evenodd;font-size:12px;overflow:visible;stroke-linecap:square;stroke-miterlimit:3}</style><defs id="Markers"><g id="lend13"><path id="path4736" d="M 3,1 0,0 3,-1 v 2" style="stroke:none"/></g><marker style="overflow:visible;fill:#a5a5a5;fill-opacity:1;stroke:#a5a5a5;stroke-width:.0902527;stroke-opacity:1" id="mrkr13-12" class="st3" markerUnits="strokeWidth" orient="auto" overflow="visible" refX="31.8"><use id="use4739" width="100%" height="100%" x="0" y="0" transform="scale(11.08)" xlink:href="#lend13"/></marker><marker style="overflow:visible;fill:#a5a5a5;fill-opacity:1;stroke:#a5a5a5;stroke-width:.0902527;stroke-opacity:1" id="mrkr13-14" class="st3" markerUnits="strokeWidth" orient="auto" overflow="visible" refX="-33.24"><use id="use4742" width="100%" height="100%" x="0" y="0" transform="scale(-11.08)" xlink:href="#lend13"/></marker><marker style="overflow:visible;fill:#000;fill-opacity:1;stroke:#000;stroke-width:.0902527;stroke-opacity:1" id="mrkr13-81" class="st13" markerUnits="strokeWidth" orient="auto" overflow="visible" refX="-33.24"><use id="use4745" width="100%" height="100%" x="0" y="0" transform="scale(-11.08)" xlink:href="#lend13"/></marker></defs><g id="g4976" transform="translate(-91.424962,-78.374962)"><title id="title4749">Page-1</title><g id="group63-1" transform="translate(208.459,-607.816)"><title id="title4751">g28</title><g id="shape64-2" transform="matrix(1,0,0,-1,18.0396,1580.6)"><title id="title4753">path42</title><path style="fill:#d8d8d8;stroke:none;stroke-width:1;stroke-linecap:butt" id="path4755" d="M 5.52,791.13 C 4.9,791.68 4.04,792 3.14,792 H 2.86 c -0.9,0 -1.76,-0.32 -2.38,-0.87 -0.01,-0.01 -0.01,-0.02 -0.02,-0.02 -0.26,-0.24 -0.42,-0.55 -0.43,-0.89 -0.03,-0.62 0.45,-1.19 1.15,-1.35 0.58,-0.13 1.23,-0.25 1.57,-0.26 v 0 c 0.04,0 0.08,0 0.12,0 0.05,-0.01 0.09,-0.01 0.13,-0.01 0.04,0 0.09,0 0.13,0.01 0.04,0 0.08,0 0.12,0 v 0 c 0.34,0.01 0.99,0.13 1.58,0.26 0.7,0.17 1.17,0.73 1.15,1.36 -0.02,0.33 -0.17,0.64 -0.44,0.88 -0.01,0 -0.01,0.01 -0.02,0.02 z" class="st1"/></g><g id="shape65-4" transform="matrix(1,0,0,-1,0,1554.75)"><title id="title4758">path46</title><path style="fill:#d8d8d8;stroke:none;stroke-width:1;stroke-linecap:butt" id="path4760" d="m 30.78,775.28 c -0.01,0.15 -0.05,0.3 -0.09,0.44 -0.15,-0.15 -0.35,-0.24 -0.57,-0.24 -0.44,0 -0.78,0.34 -0.78,0.75 0,0.27 0.15,0.51 0.37,0.64 -0.31,0.17 -0.66,0.26 -1.04,0.26 -1.16,0 -2.11,-0.91 -2.11,-2.03 0,-0.01 0,-0.02 0,-0.03 -0.21,0.06 -0.43,0.11 -0.64,0.18 l -0.86,0.29 1.04,1.11 c 0.4,0.42 0.88,0.78 1.42,1.05 0.78,0.41 1.75,0.39 2.52,-0.04 0.41,-0.23 0.73,-0.56 0.91,-0.95 l 0.55,-1.15 c -0.24,-0.11 -0.48,-0.2 -0.72,-0.28 z m -14.62,-0.03 c -0.21,-0.07 -0.43,-0.12 -0.64,-0.18 0,0.01 0,0.02 0,0.03 0,0.22 -0.04,0.43 -0.11,0.63 -0.11,-0.06 -0.24,-0.1 -0.39,-0.1 -0.43,0 -0.78,0.34 -0.78,0.75 0,0.19 0.08,0.36 0.2,0.49 -0.31,0.17 -0.66,0.26 -1.03,0.26 -1.11,0 -2.01,-0.81 -2.11,-1.85 -0.24,0.08 -0.48,0.17 -0.72,0.28 l 0.55,1.15 c 0.18,0.39 0.5,0.72 0.91,0.95 0.77,0.43 1.74,0.45 2.53,0.04 0.54,-0.27 1.02,-0.63 1.41,-1.05 l 1.05,-1.11 z m 25.71,12.53 c -0.26,-0.29 -0.6,-0.66 -0.88,-0.97 l -0.01,0.06 c 0.07,0.41 0.13,0.82 0.19,1.23 0.06,0.42 0.13,0.84 0.16,1.26 0,0.08 -0.11,0.12 -0.16,0.06 -0.14,-0.16 -0.31,-0.34 -0.47,-0.52 l -0.29,2 c -0.09,0.67 -0.99,0.99 -1.6,0.58 l -4.58,-3.09 c -1.18,-0.81 -2.8,-0.94 -4.15,-0.35 l -3.06,1.35 c -1.81,0.8 -3.77,1.2 -5.73,1.23 v 0 h -0.02 c -0.08,0.01 -0.15,0.01 -0.23,0.01 -0.08,0 -0.15,0 -0.23,-0.01 h -0.02 v 0 c -1.96,-0.03 -3.92,-0.43 -5.72,-1.23 L 12,788.04 c -1.35,-0.59 -2.96,-0.46 -4.15,0.35 l -4.86,3.28 C 2.5,792 1.79,791.74 1.71,791.21 L 1.39,788.9 c -0.17,0.18 -0.34,0.36 -0.47,0.52 -0.06,0.06 -0.17,0.02 -0.17,-0.06 0.03,-0.42 0.1,-0.84 0.16,-1.26 0.06,-0.41 0.13,-0.82 0.19,-1.23 l -0.01,-0.06 c -0.27,0.31 -0.62,0.68 -0.88,0.97 -0.07,0.08 -0.21,0.04 -0.2,-0.06 0.04,-0.53 0.12,-1.06 0.2,-1.59 0.11,-0.77 0.23,-1.54 0.34,-2.31 0.08,-0.48 0.25,-1.67 0.44,-2.8 0.04,-0.23 0.43,-0.24 0.49,-0.01 l 1.8,7.3 c 0.19,0.41 0.78,0.54 1.17,0.27 l 0.58,-0.3 c 1.92,-1 4.5,-4.16 4.5,-4.16 0.3,-0.22 0.21,-0.64 -0.17,-0.75 -0.57,-0.15 -1.12,-0.32 -1.65,-0.52 -1.53,-0.58 -2.96,-1.33 -4.11,-2.29 -1.29,-1.07 -1.73,-2.7 -1.16,-4.16 l 1.15,-2.99 c 0.11,-0.43 0.28,-0.83 0.51,-1.2 0.18,-0.28 0.38,-0.54 0.62,-0.78 0.15,-0.14 0.42,-0.01 0.36,0.17 -0.07,0.22 -0.12,0.45 -0.16,0.68 0.01,0.01 0.02,0.02 0.04,0.02 0.01,0 0.02,0 0.03,-0.01 v 0.01 c 0.19,-0.31 0.4,-0.6 0.65,-0.86 0.15,-0.15 0.43,-0.02 0.37,0.17 -0.03,0.11 -0.06,0.22 -0.09,0.34 0,0.02 0.02,0.03 0.04,0.03 0.01,0 0.01,0 0.02,0 v 0 l 2.9,-1.29 c 0.57,-0.26 1.23,-0.3 1.83,-0.12 l 5.14,1.54 c 1.1,0.33 2.32,-0.1 2.84,-1.01 l 0.81,-1.42 c 0.23,-0.39 0.63,-0.7 1.13,-0.8 0.8,-0.17 1.59,0.17 1.94,0.77 l 0.83,1.45 c 0.52,0.91 1.73,1.34 2.84,1.01 l 5.14,-1.54 c 0.6,-0.18 1.25,-0.14 1.82,0.12 l 2.91,1.29 v 0 c 0,0 0.01,0 0.01,0 0.02,0 0.04,-0.01 0.04,-0.03 -0.02,-0.12 -0.05,-0.23 -0.09,-0.34 -0.06,-0.19 0.22,-0.32 0.37,-0.17 0.25,0.26 0.47,0.55 0.65,0.86 v -0.01 c 0.01,0.01 0.02,0.01 0.03,0.01 0.02,0 0.03,-0.01 0.04,-0.02 -0.04,-0.23 -0.09,-0.46 -0.16,-0.68 -0.06,-0.19 0.22,-0.31 0.37,-0.16 0.49,0.49 0.86,1.09 1.06,1.75 l 1.24,3.24 c 0.56,1.46 0.12,3.09 -1.18,4.16 -1.14,0.95 -2.57,1.69 -4.08,2.26 -0.54,0.2 -1.09,0.37 -1.65,0.52 -0.38,0.11 -0.17,0.75 -0.17,0.75 1.02,1.73 2.58,3.16 4.5,4.16 l 0.58,0.3 c 0.39,0.27 0.98,0.14 1.17,-0.27 l 1.78,-7.21 c 0.06,-0.23 0.44,-0.22 0.48,0.01 0.2,1.1 0.36,2.24 0.43,2.71 0.11,0.77 0.23,1.54 0.35,2.31 0.08,0.53 0.16,1.06 0.19,1.59 0.01,0.1 -0.13,0.14 -0.2,0.06 z" class="st1"/></g></g><g id="shape44-6" transform="rotate(23.9555,1742.4008,1051.3106)"><title id="title4764">Sheet.44</title><desc id="desc4766">GCP API</desc><path style="stroke:#a5a5a5;stroke-width:.25;stroke-linecap:round;stroke-linejoin:round;stroke-dasharray:3.75,2.25;marker-start:url(#mrkr13-12);marker-end:url(#mrkr13-14)" id="path4768" d="M 7.95,792 H 8.31 166.5" class="st2"/><rect style="fill:#fff;stroke:none;stroke-width:7.19999981;stroke-linecap:butt" id="rect4770" width="26.031" height="9.6" x="46.541" y="787.708" class="st4"/><text style="font-size:7px;font-family:Helvetica;fill:#a5a5a5" id="text4772" x="46.54" y="794.91" class="st5">GCP API</text></g><g id="shape47-17" transform="rotate(33.6241,1261.4473,872.03853)"><title id="title4775">Sheet.47</title><desc id="desc4777">Azure API</desc><path style="stroke:#a5a5a5;stroke-width:.25;stroke-linecap:round;stroke-linejoin:round;stroke-dasharray:3.75,2.25;marker-start:url(#mrkr13-12);marker-end:url(#mrkr13-14)" id="path4779" d="M 7.95,792 H 8.31 183.55" class="st2"/><rect style="fill:#fff;stroke:none;stroke-width:7.19999981;stroke-linecap:butt" id="rect4781" width="31.348" height="9.6" x="46.398" y="786.931" class="st4"/><text style="font-size:7px;font-family:Helvetica;fill:#a5a5a5" id="text4783" x="46.4" y="794.13" class="st5">Azure API</text></g><g id="shape26-26" transform="translate(255.375,-685.125)"><title id="title4786">Sheet.26</title><desc id="desc4788">S3 API</desc><path style="stroke:#a5a5a5;stroke-width:.25;stroke-linecap:round;stroke-linejoin:round;stroke-dasharray:3.75,2.25;marker-start:url(#mrkr13-12);marker-end:url(#mrkr13-14)" id="path4790" d="M 7.95,792 H 8.31 151.44" class="st2"/><rect style="fill:#fff;stroke:none;stroke-width:7.19999981;stroke-linecap:butt" id="rect4792" width="20.317" height="9.6" x="46.332" y="787.442" class="st4"/><text style="font-size:7px;font-family:Helvetica;fill:#a5a5a5" id="text4794" x="46.33" y="794.64" class="st5">S3 API</text></g><g id="shape37-35" transform="rotate(12.6842,3209.8131,1598.276)"><title id="title4797">Sheet.37</title><desc id="desc4799">S3 API</desc><path style="stroke:#a5a5a5;stroke-width:.25;stroke-linecap:round;stroke-linejoin:round;stroke-dasharray:3.75,2.25;marker-start:url(#mrkr13-12);marker-end:url(#mrkr13-14)" id="path4801" d="M 7.95,792 H 8.31 155.44" class="st2"/><rect style="fill:#fff;stroke:none;stroke-width:7.19999981;stroke-linecap:butt" id="rect4803" width="20.317" height="9.6" x="47.475" y="788.078" class="st4"/><text style="font-size:7px;font-family:Helvetica;fill:#a5a5a5" id="text4805" x="47.47" y="795.28" class="st5">S3 API</text></g><g id="shape2-44" transform="translate(96.75,-626.85)"><title id="title4808">Process</title><desc id="desc4810">Orbit</desc><rect style="fill:#fff;stroke:#000;stroke-width:.23999999;stroke-linecap:round;stroke-linejoin:round" id="rect4812" width="72" height="27" x="0" y="765" class="st6"/><text style="font-size:7.99996805px;font-family:Helvetica;fill:#000" id="text4814" x="27.6" y="780.9" class="st7">Orbit</text></g><g id="shape3-47" transform="translate(96.75,-591.93)"><title id="title4817">Process.3</title><desc id="desc4819">CLI</desc><rect style="fill:#fff;stroke:#000;stroke-width:.23999999;stroke-linecap:round;stroke-linejoin:round" id="rect4821" width="72" height="27" x="0" y="765" class="st6"/><text style="font-size:7.99996805px;font-family:Helvetica;fill:#000" id="text4823" x="31.18" y="780.9" class="st7">CLI</text></g><g id="shape4-50" transform="translate(204.75,-597.656)"><title id="title4826">Process.4</title><desc id="desc4828">Zenko</desc><rect style="fill:none;stroke:#000;stroke-width:.23999999;stroke-linecap:round;stroke-linejoin:round" id="rect4830" width="51.188" height="51.188" x="0" y="740.812" class="st8"/><text style="font-size:7.99996805px;font-family:Helvetica;fill:#000" id="text4832" x="15.7" y="768.81" class="st7">Zenko</text></g><g id="shape8-53" transform="translate(206.962,-662.625)"><title id="title4835">Process.8</title><desc id="desc4837">Transient Source Location (optional)</desc><path style="fill:#fff;stroke:#a5a5a5;stroke-width:.23999999;stroke-linecap:round;stroke-linejoin:round;stroke-dasharray:3.6,2.16" id="path4839" d="M 0,792 H 48.41 V 747 H 0 Z" class="st9"/><text style="font-size:7.99996805px;font-family:Helvetica;fill:#000" id="text4847" x="8.93" y="757.5" class="st7">Transient<tspan style="font-size:7.99996805px" id="tspan4841" x="13.08" class="st10" dy="1.2em">Source </tspan><tspan style="font-size:7.99996805px" id="tspan4843" x="10.34" class="st10" dy="1.2em">Location </tspan><tspan style="font-size:7.99996805px" id="tspan4845" x="8.27" class="st10" dy="1.2em">(optional)</tspan></text></g><g id="shape9-59" transform="translate(415.125,-635.912)"><title id="title4850">Process.9</title><desc id="desc4852">AWS</desc><rect style="fill:#fff;stroke:#000;stroke-width:.23999999;stroke-linecap:round;stroke-linejoin:round" id="rect4854" width="38.25" height="27" x="0" y="765" class="st6"/><text style="font-size:7.99996805px;font-family:Helvetica;fill:#000" id="text4856" x="11.41" y="780.9" class="st7">AWS</text></g><g id="shape10-62" transform="translate(415.125,-600.648)"><title id="title4859">Process.10</title><desc id="desc4861">GCP</desc><rect style="fill:#fff;stroke:#000;stroke-width:.23999999;stroke-linecap:round;stroke-linejoin:round" id="rect4863" width="38.25" height="27" x="0" y="765" class="st6"/><text style="font-size:7.99996805px;font-family:Helvetica;fill:#000" id="text4865" x="12.4" y="780.9" class="st7">GCP</text></g><g id="shape11-65" transform="translate(415.133,-565.385)"><title id="title4868">Process.11</title><desc id="desc4870">Azure</desc><rect style="fill:#fff;stroke:#000;stroke-width:.23999999;stroke-linecap:round;stroke-linejoin:round" id="rect4872" width="38.25" height="27" x="0" y="765" class="st6"/><text style="font-size:7.99996805px;font-family:Helvetica;fill:#000" id="text4874" x="9.74" y="780.9" class="st7">Azure</text></g><g id="shape12-68" transform="translate(415.125,-671.625)"><title id="title4877">Process.12</title><desc id="desc4879">RING</desc><rect style="fill:#fff;stroke:#000;stroke-width:.23999999;stroke-linecap:round;stroke-linejoin:round" id="rect4881" width="38.25" height="27" x="0" y="765" class="st6"/><text style="font-size:7.99996805px;font-family:Helvetica;fill:#000" id="text4883" x="10.84" y="780.9" class="st7">RING</text></g><g id="shape14-71" transform="translate(212.749,-646.847)"><title id="title4886">Dynamic connector.14</title><path style="stroke:#a5a5a5;stroke-width:.25;stroke-linecap:round;stroke-linejoin:round;marker-end:url(#mrkr13-14)" id="path4888" d="m 8.91,790 0.07,-5.69" class="st11"/></g><g id="shape20-76" transform="translate(168.75,-640.8)"><title id="title4891">Dynamic connector.20</title><path style="stroke:#000;stroke-width:.25;stroke-linecap:round;stroke-linejoin:round;marker-end:url(#mrkr13-81)" id="path4893" d="m 0,792.45 28.49,13.53" class="st12"/></g><g id="shape24-82" transform="rotate(3.2724,11037.366,4960.3081)"><title id="title4896">Sheet.24</title><desc id="desc4898">GCP XML API</desc><path style="stroke:#000;stroke-width:.25;stroke-linecap:round;stroke-linejoin:round;marker-end:url(#mrkr13-81)" id="path4900" d="M 0,792 H 151.14" class="st12"/><rect style="fill:#fff;stroke:none;stroke-linecap:butt" id="rect4902" width="42.195" height="9.6" x="82.986" y="787.442" class="st14"/><text style="font-size:7px;font-family:Helvetica;fill:#000" id="text4904" x="82.99" y="794.64" class="st7">GCP XML API</text></g><g id="shape25-89" transform="rotate(-9.33283,-3689.8004,-1087.3889)"><title id="title4907">Sheet.25</title><desc id="desc4909">S3 API</desc><path style="stroke:#000;stroke-width:.25;stroke-linecap:round;stroke-linejoin:round;marker-end:url(#mrkr13-81)" id="path4911" d="M 0,792 H 153.01" class="st12"/><rect style="fill:#fff;stroke:none;stroke-linecap:butt" id="rect4913" width="20.317" height="9.6" x="82.832" y="787.089" class="st14"/><text style="font-size:7px;font-family:Helvetica;fill:#000" id="text4915" x="82.83" y="794.29" class="st7">S3 API</text></g><g id="shape27-96" transform="rotate(15.5723,2406.985,1416.2512)"><title id="title4918">Sheet.27</title><desc id="desc4920">Azure Storage API</desc><path style="stroke:#000;stroke-width:.25;stroke-linecap:round;stroke-linejoin:round;marker-end:url(#mrkr13-81)" id="path4922" d="M 0,792 H 156.95" class="st12"/><rect style="fill:#fff;stroke:none;stroke-width:7.19999981;stroke-linecap:butt" id="rect4924" width="58.097" height="9.6" x="81.579" y="787.094" class="st4"/><text style="font-size:7px;font-family:Helvetica;fill:#000" id="text4926" x="81.58" y="794.29" class="st7">Azure Storage API</text></g><g id="shape35-103" transform="translate(230.662,-664.847)"><title id="title4929">Dynamic connector.35</title><path style="stroke:#a5a5a5;stroke-width:.25;stroke-linecap:round;stroke-linejoin:round;marker-end:url(#mrkr13-14)" id="path4931" d="m 9,794 v 5.69" class="st11"/></g><g id="shape36-108" transform="rotate(-21.2407,-1533.9208,-202.07783)"><title id="title4934">Sheet.36</title><desc id="desc4936">S3 API</desc><path style="stroke:#000;stroke-width:.25;stroke-linecap:round;stroke-linejoin:round;marker-end:url(#mrkr13-81)" id="path4938" d="M 0,792 H 162.48" class="st12"/><rect style="fill:#fff;stroke:none;stroke-linecap:butt" id="rect4940" width="20.317" height="9.6" x="84.006" y="786.983" class="st14"/><text style="font-size:7px;font-family:Helvetica;fill:#000" id="text4942" x="84.01" y="794.18" class="st7">S3 API</text></g><g id="shape38-115" transform="translate(184.5,-713.25)"><title id="title4945">Sheet.38</title><path style="stroke:#fff;stroke-width:.75;stroke-linecap:round;stroke-linejoin:round" id="path4947" d="M 0,792 H 164.25" class="st15"/></g><g id="shape39-118" transform="translate(289.125,-557.55)"><title id="title4950">Sheet.39</title><path style="stroke:#fff;stroke-width:.75;stroke-linecap:round;stroke-linejoin:round" id="path4952" d="M 0,792 H 164.25" class="st15"/></g><g id="shape40-121" transform="rotate(-90,-247.725,452.475)"><title id="title4955">Sheet.40</title><path style="stroke:#fff;stroke-width:.75;stroke-linecap:round;stroke-linejoin:round" id="path4957" d="M 0,792 H 90.45" class="st15"/></g><g id="shape41-124" transform="rotate(-90,-65.025,269.775)"><title id="title4960">Sheet.41</title><path style="stroke:#fff;stroke-width:.75;stroke-linecap:round;stroke-linejoin:round" id="path4962" d="M 0,792 H 90.45" class="st15"/></g><g id="shape42-127" transform="rotate(-26.3354,-1209.5391,128.63562)"><title id="title4965">Sheet.42</title><desc id="desc4967">S3 API</desc><path style="stroke:#000;stroke-width:.25;stroke-linecap:round;stroke-linejoin:round;marker-end:url(#mrkr13-81)" id="path4969" d="M 0,792 H 31.86" class="st12"/><rect style="fill:#fff;stroke:none;stroke-linecap:butt" id="rect4971" width="20.317" height="9.6" x="9.926" y="787.2" class="st14"/><text style="font-size:7px;font-family:Helvetica;fill:#000" id="text4973" x="9.93" y="794.4" class="st7">S3 API</text></g></g></svg>